<svg id="Capa_1" enable-background="new 0 0 512 512" height="512" viewBox="0 0 512 512" width="512" xmlns="http://www.w3.org/2000/svg"><g><path d="m458.79 193.131h-187.79v271h187.79c29.34 0 53.21-23.87 53.21-53.21v-164.58c0-29.34-23.87-53.21-53.21-53.21zm-68.78 210.51c-36.48 0-67.72-26.01-74.27-61.86-1.89-10.26 7.08-19.32 17.42-17.46 31.47 5.67 58.67-21.65 53.02-53.03-1.88-10.34 7.2-19.3 17.45-17.42 35.86 6.55 61.88 37.78 61.88 74.27 0 41.63-33.87 75.5-75.5 75.5z"/><path d="m0 246.341v164.58c0 29.34 23.87 53.21 53.21 53.21h187.79v-271h-187.79c-29.34 0-53.21 23.87-53.21 53.21zm42.17 97.29c-8.29 0-15-6.71-15-15 0-8.28 6.71-15 15-15h5.33c8.28 0 15 6.72 15 15 0 8.29-6.72 15-15 15zm37.32 47.23-3.77 3.77c-5.85 5.85-15.38 5.85-21.21 0-5.86-5.86-5.86-15.36-.01-21.21l3.77-3.77c5.86-5.86 15.36-5.86 21.22-.01 5.85 5.86 5.86 15.36 0 21.22zm56.01 16.1c0 8.29-6.72 15-15 15s-15-6.71-15-15v-5.33c0-8.28 6.72-15 15-15s15 6.72 15 15zm40.39-7.94c-3.84 0-7.68-1.46-10.61-4.39l-3.77-3.77c-5.86-5.86-5.85-15.36 0-21.22 5.86-5.85 15.36-5.85 21.22.01l3.77 3.77c9.44 9.44 2.67 25.6-10.61 25.6zm22.94-85.39c8.29 0 15 6.72 15 15 0 8.29-6.71 15-15 15h-5.33c-8.28 0-15-6.71-15-15 0-8.28 6.72-15 15-15zm-37.32-47.22 3.77-3.77c5.86-5.86 15.36-5.86 21.21 0 5.86 5.85 5.86 15.35.01 21.21l-3.77 3.77c-5.84 5.84-15.35 5.87-21.22 0-5.85-5.86-5.86-15.35 0-21.21zm-56.01-16.11c0-8.28 6.72-15 15-15s15 6.72 15 15v5.33c0 8.29-6.72 15-15 15s-15-6.71-15-15zm15 33.33c24.81 0 45 20.19 45 45 0 24.82-20.19 45-45 45s-45-20.18-45-45c0-24.81 20.19-45 45-45zm-44.78-20.99 3.77 3.77c5.86 5.86 5.85 15.35 0 21.21-5.84 5.84-15.35 5.87-21.22 0l-3.77-3.77c-5.85-5.86-5.85-15.36.01-21.21 5.85-5.86 15.35-5.86 21.21 0z"/><circle cx="120.5" cy="328.631" r="15"/><path d="m416.08 290.821c-4.9 32.63-30.76 58.5-63.39 63.4 8.3 11.86 22.04 19.42 37.32 19.42 25.09 0 45.5-20.41 45.5-45.5 0-15.28-7.57-29.03-19.43-37.32z"/><path d="m223.21 121.134h209.531l-17.658 17.658c-5.858 5.857-5.858 15.355 0 21.213 5.857 5.858 15.355 5.858 21.213 0l43.265-43.264c5.858-5.857 5.859-15.354 0-21.213l-43.265-43.265c-5.857-5.858-15.355-5.858-21.213 0s-5.858 15.355 0 21.213l17.658 17.658h-209.531c-8.284 0-15 6.716-15 15s6.716 15 15 15z"/><path d="m43.21 121.134h30c8.284 0 15-6.716 15-15s-6.716-15-15-15h-30c-8.284 0-15 6.716-15 15s6.716 15 15 15z"/><path d="m133.21 121.134h30c8.284 0 15-6.716 15-15s-6.716-15-15-15h-30c-8.284 0-15 6.716-15 15s6.716 15 15 15z"/></g></svg>